# xmcd CD database file
#
# Track frame offsets:
#	150
#	1158
#	11734
#	29739
#	81345
#	106176
#	121010
#	135645
#	154606
#	178734
#	236425
#	255245
#	294058
#	322761
#
# Disc length: 4754 seconds
#
# Revision: 0
# Processed by: cddbd v1.5.2PL0 Copyright (c) Steve Scherf et al.
# Submitted via: CDex 1.70beta2
#
DISCID=a012900e
DTITLE=Stevie Ray Vaughan and Double Trouble - Rockpalast 13.10.1984
DYEAR=1984
DGENRE=Blues
TTITLE0=Intro
TTITLE1=Scuttle Buttin
TTITLE2=Testify
TTITLE3=Voodoo Chile
TTITLE4=The Things That I Used To Do
TTITLE5=Honey Bee
TTITLE6=Love Struck Baby
TTITLE7=Cold Shot
TTITLE8=Couldnt Stand The Weather
TTITLE9=Tin Pan Alley
TTITLE10=Pride And Joy
TTITLE11=Texas Flood
TTITLE12=Little Wing
TTITLE13=Third Stone From The Sun
EXTD=YEAR: 1984
EXTT0=
EXTT1=
EXTT2=
EXTT3=
EXTT4=
EXTT5=
EXTT6=
EXTT7=
EXTT8=
EXTT9=
EXTT10=
EXTT11=
EXTT12=
EXTT13=
PLAYORDER=
